<?xml version="1.0" standalone="no"?>
<!DOCTYPE svg PUBLIC "-//W3C//DTD SVG 20010904//EN"
 "http://www.w3.org/TR/2001/REC-SVG-20010904/DTD/svg10.dtd">
<svg version="1.0" xmlns="http://www.w3.org/2000/svg"
 width="16.000000pt" height="16.000000pt" viewBox="0 0 16.000000 16.000000"
 preserveAspectRatio="xMidYMid meet">
<metadata>
Created by potrace 1.11, written by Peter Selinger 2001-2013
</metadata>
<g transform="translate(0.000000,16.000000) scale(0.002222,-0.002222)"
fill="#000000" stroke="none">
<path d="M3726 6915 c-247 -107 -370 -245 -421 -470 l-7 -30 -24 30 c-34 42
-54 114 -60 220 -8 120 -7 119 -42 101 -16 -8 -51 -34 -80 -58 -136 -115 -236
-308 -251 -486 l-6 -75 -37 -13 c-36 -12 -37 -12 -64 23 -97 127 -258 279
-381 360 -106 70 -194 109 -313 141 -81 21 -117 25 -240 25 -180 0 -256 -18
-420 -100 -103 -51 -124 -66 -203 -147 -48 -49 -84 -93 -80 -97 5 -4 55 -17
113 -29 135 -28 228 -67 313 -131 89 -67 114 -105 127 -198 8 -58 7 -90 -5
-153 -8 -44 -15 -82 -15 -84 0 -2 -17 -4 -37 -4 -61 0 -162 -28 -225 -62 -71
-38 -121 -92 -157 -167 -22 -48 -26 -69 -26 -146 1 -122 40 -233 132 -373 46
-68 58 -165 44 -332 -16 -183 -25 -204 -125 -283 -149 -118 -201 -220 -194
-377 10 -207 136 -342 507 -546 160 -88 189 -115 243 -230 33 -69 33 -70 36
-244 3 -158 -19 -595 -37 -710 l-6 -45 -55 55 c-71 73 -134 160 -176 242 -39
77 -84 209 -84 244 0 35 -13 30 -66 -28 -169 -188 -250 -460 -223 -748 25
-267 107 -456 266 -612 76 -74 206 -160 300 -197 53 -22 64 -31 82 -68 31 -63
101 -168 166 -245 145 -174 389 -313 612 -349 65 -11 88 -20 139 -56 317 -222
869 -278 1294 -131 93 32 186 81 267 138 38 27 68 39 105 44 205 26 420 136
579 295 86 87 136 153 201 265 l45 78 91 43 c203 97 327 210 421 387 113 212
151 528 91 768 -32 127 -115 291 -191 373 -34 37 -63 66 -65 64 -2 -2 -13 -37
-23 -79 -37 -146 -117 -288 -231 -411 -45 -49 -65 -65 -71 -55 -15 28 -48 531
-49 743 0 171 36 279 123 363 23 22 105 75 182 118 265 146 381 242 445 368
30 60 35 80 38 161 7 166 -33 248 -183 375 -123 104 -129 120 -129 375 l-1
190 43 61 c91 132 137 268 130 388 -5 99 -29 157 -92 224 -67 72 -187 122
-316 134 -33 3 -35 5 -48 58 -16 71 -11 224 10 265 59 113 249 217 466 255 39
7 72 17 72 22 0 4 -42 50 -92 101 -82 82 -106 100 -198 145 -151 74 -250 97
-425 96 -118 -1 -156 -6 -240 -28 -123 -32 -256 -98 -366 -181 -82 -62 -239
-216 -310 -305 l-36 -45 -54 14 c-30 7 -60 18 -66 24 -20 15 -16 140 7 236 11
46 38 122 60 169 22 47 40 87 40 90 0 2 -29 2 -65 0 -81 -7 -198 -61 -299
-137 -37 -29 -70 -50 -72 -48 -13 13 -46 128 -55 192 -10 77 -1 192 21 250 6
15 9 29 7 31 -1 2 -38 -12 -81 -31z m-1738 -449 c172 -46 340 -172 487 -365
34 -45 45 -66 35 -69 -7 -3 -38 -18 -68 -33 -30 -16 -58 -29 -62 -29 -5 0 -18
16 -30 35 -38 61 -103 132 -177 194 -91 75 -140 104 -234 137 -63 23 -93 27
-209 29 -128 3 -138 5 -189 33 l-53 30 52 17 c137 45 324 54 448 21z m3447 -1
c33 -8 73 -20 88 -27 l28 -11 -53 -30 c-50 -28 -59 -30 -148 -28 -157 4 -294
-36 -417 -120 -72 -50 -188 -165 -224 -222 -18 -29 -34 -54 -36 -56 -5 -7
-143 62 -143 72 0 16 95 132 167 204 143 142 262 204 453 237 48 9 225 -3 285
-19z m-1545 -480 c189 -29 470 -109 525 -149 21 -15 37 -104 29 -161 -3 -22
-34 -92 -69 -155 -35 -63 -91 -170 -124 -238 -34 -68 -85 -156 -114 -195 -65
-88 -101 -146 -95 -153 3 -2 61 37 129 87 450 332 720 463 1061 514 120 18
196 19 269 1 120 -28 173 -88 166 -186 -6 -67 -42 -159 -94 -237 l-38 -58 -5
85 c-5 80 -6 83 -18 55 -8 -16 -20 -59 -28 -94 -19 -83 -54 -439 -54 -556 0
-233 54 -433 144 -532 l35 -40 -37 -35 c-71 -68 -229 -154 -408 -222 -179 -68
-245 -189 -280 -520 -3 -36 -9 -55 -15 -49 -5 5 -25 52 -45 104 l-35 94 6
-270 c9 -422 32 -593 122 -908 14 -49 23 -91 20 -94 -8 -7 -195 -38 -200 -33
-3 3 -109 162 -236 353 -148 223 -255 396 -297 479 -36 71 -67 128 -70 125
-11 -10 58 -358 107 -547 43 -163 102 -356 149 -488 22 -63 40 -115 40 -115 0
-1 -409 -2 -909 -2 l-909 0 39 110 c56 156 122 379 169 568 44 182 93 438 88
464 -2 10 -29 -36 -61 -102 -39 -79 -141 -245 -300 -484 l-241 -363 -53 6
c-29 3 -76 11 -104 17 -46 10 -50 13 -44 33 22 70 88 334 101 406 26 148 43
388 44 620 l0 225 -35 -100 c-19 -55 -35 -101 -35 -102 0 -2 -4 -3 -9 -3 -4 0
-12 37 -15 83 -11 130 -34 226 -72 304 -50 103 -104 148 -251 208 -187 76
-393 200 -393 236 0 6 14 24 30 42 42 44 86 136 111 232 49 188 27 715 -40
920 l-19 60 -2 -60 c-1 -33 -5 -70 -8 -83 -6 -21 -10 -18 -40 29 -104 158
-123 291 -52 364 52 53 114 70 255 69 345 -2 694 -152 1170 -503 83 -61 154
-111 158 -111 11 0 -25 58 -92 150 -30 41 -85 136 -122 210 -36 74 -92 180
-124 235 -62 107 -75 163 -61 260 9 54 14 57 166 108 138 46 315 85 464 102
155 18 509 13 656 -10z m-1853 -3062 c-2 -27 -3 -5 -3 47 0 52 1 74 3 48 2
-27 2 -69 0 -95z m2980 -225 c-2 -13 -4 -5 -4 17 -1 22 1 32 4 23 2 -10 2 -28
0 -40z m-3000 -250 c-3 -7 -5 -2 -5 12 0 14 2 19 5 13 2 -7 2 -19 0 -25z
m-470 -263 c153 -188 411 -308 741 -344 46 -5 86 -11 89 -14 6 -6 -50 -88
-100 -147 -70 -81 -100 -206 -78 -321 7 -33 15 -67 18 -75 7 -19 -49 -19 -158
1 -262 46 -476 180 -592 373 -44 72 -72 155 -93 274 -26 148 -9 414 31 478 5
8 24 -22 51 -76 23 -49 64 -116 91 -149z m4120 132 c22 -105 19 -316 -6 -437
-31 -147 -85 -246 -190 -351 -151 -151 -342 -236 -575 -256 l-74 -6 15 54 c9
34 13 85 11 139 -5 104 -28 156 -124 279 -76 97 -77 94 45 105 156 14 318 59
452 126 177 88 304 217 380 387 35 79 41 76 66 -40z m-630 31 c-3 -7 -5 -2 -5
12 0 14 2 19 5 13 2 -7 2 -19 0 -25z m20 -230 c-3 -7 -5 -2 -5 12 0 14 2 19 5
13 2 -7 2 -19 0 -25z m-2584 -85 c-13 -2 -33 -2 -45 0 -13 2 -3 4 22 4 25 0
35 -2 23 -4z m2140 0 c-13 -2 -33 -2 -45 0 -13 2 -3 4 22 4 25 0 35 -2 23 -4z
m-117 -386 c74 -25 116 -56 142 -107 33 -64 26 -161 -21 -291 -56 -152 -78
-189 -154 -252 -206 -172 -457 -261 -806 -287 -317 -22 -633 33 -872 152 -104
53 -156 89 -232 161 -56 53 -67 71 -103 162 -96 247 -89 364 25 431 91 53 96
53 1070 51 823 -2 904 -4 951 -20z m-2277 -587 c46 -5 85 -11 86 -12 1 -2 21
-41 43 -88 22 -47 54 -109 71 -137 17 -29 29 -53 26 -53 -12 0 -92 45 -145 80
-57 39 -220 203 -220 221 0 6 12 8 28 5 15 -3 65 -10 111 -16z m2730 -12 c-46
-65 -178 -184 -258 -232 -45 -27 -84 -46 -87 -43 -3 3 13 37 35 76 23 39 55
100 71 135 28 63 30 65 72 71 24 3 68 9 98 14 96 15 95 16 69 -21z m-1386
-605 c-24 -2 -62 -2 -85 0 -24 2 -5 4 42 4 47 0 66 -2 43 -4z"/>
<path d="M3130 4781 c0 -4 9 -16 20 -26 11 -10 20 -24 20 -31 0 -23 159 -161
225 -194 98 -50 149 -51 238 -7 84 42 219 153 243 200 9 17 24 41 33 51 15 18
15 19 -4 11 -137 -57 -150 -59 -370 -60 -216 0 -270 7 -362 46 -24 10 -43 15
-43 10z"/>
<path d="M1975 4763 c-84 -19 -142 -35 -178 -52 -23 -10 -49 -21 -57 -24 -18
-6 -21 -4 83 -37 l68 -22 -25 -25 c-64 -64 -74 -205 -23 -316 30 -66 47 -73
48 -19 0 46 36 160 38 121 2 -64 42 -255 69 -333 75 -217 212 -351 412 -402
67 -17 217 -23 258 -10 20 7 22 4 22 -25 0 -51 -30 -158 -61 -221 l-29 -57 28
12 c60 27 99 51 144 88 26 22 51 39 55 39 17 0 116 162 143 234 16 39 31 95
35 124 6 46 10 53 33 58 131 28 241 131 242 228 0 25 -3 27 -22 21 -13 -3 -44
-9 -70 -12 -98 -11 -217 77 -330 245 -39 58 -89 126 -112 150 -101 110 -263
196 -434 231 -51 11 -296 13 -337 4z m279 -310 c203 -121 389 -278 495 -415
13 -17 1 -18 -224 -18 l-238 0 -38 39 c-59 63 -82 135 -83 266 -1 103 7 165
20 165 4 0 34 -17 68 -37z"/>
<path d="M4680 4746 c-110 -28 -206 -74 -291 -137 -78 -57 -120 -106 -206
-235 -69 -102 -152 -183 -226 -221 -51 -25 -109 -28 -176 -7 -23 7 -24 6 -17
-32 22 -115 102 -186 249 -218 24 -6 27 -11 27 -44 0 -76 45 -189 117 -299 39
-58 146 -145 230 -187 l52 -26 -25 54 c-26 58 -64 195 -64 233 0 23 3 24 33
17 49 -11 178 -8 238 6 161 37 299 146 376 295 39 76 77 186 87 250 2 17 9 59
15 95 6 36 12 79 14 95 3 27 5 24 19 -25 9 -30 19 -72 23 -92 3 -21 10 -38 14
-38 14 0 52 100 63 165 13 77 -9 163 -52 206 l-28 29 71 21 c40 12 76 25 80
29 10 9 -113 55 -198 76 -97 22 -321 17 -425 -10z m193 -297 c14 -51 2 -236
-18 -293 -10 -27 -37 -68 -60 -92 l-42 -44 -231 0 c-164 0 -232 3 -232 11 0
19 209 220 293 283 102 76 259 176 272 172 5 -1 13 -18 18 -37z"/>
<path d="M2650 1468 c-51 -14 -80 -45 -80 -85 0 -40 58 -194 100 -269 35 -61
106 -129 158 -151 20 -9 64 -16 98 -16 137 -1 232 107 289 329 14 52 25 105
25 117 0 32 -33 64 -77 76 -48 14 -466 13 -513 -1z"/>
<path d="M3876 1470 c-37 -12 -63 -36 -70 -65 -8 -32 37 -202 74 -281 63 -131
170 -198 281 -175 132 29 206 116 289 340 27 73 29 88 19 118 -20 63 -43 68
-319 70 -135 1 -258 -2 -274 -7z"/>
</g>
</svg>
