<svg xmlns="http://www.w3.org/2000/svg" width="21.333" height="21.333" viewBox="0 0 16 16">
  <path d="M8.28.635c-.55.238-.823.544-.936 1.044l-.016.067-.053-.067c-.076-.093-.12-.253-.133-.489-.018-.266-.016-.264-.094-.224a1.3 1.3 0 0 0-.178.129 1.68 1.68 0 0 0-.557 1.08l-.014.166-.082.03c-.08.026-.082.026-.142-.052a4 4 0 0 0-.847-.8 2.2 2.2 0 0 0-.695-.313c-.18-.047-.26-.056-.533-.056-.4 0-.57.04-.934.223a1.2 1.2 0 0 0-.45.326c-.107.11-.187.207-.178.216s.122.038.25.064c.3.062.507.15.696.291.198.15.253.234.282.44a.9.9 0 0 1-.01.34l-.034.187c0 .004-.038.009-.082.009-.136 0-.36.062-.5.137a.8.8 0 0 0-.35.372c-.048.106-.057.153-.057.324.002.271.089.518.293.829.103.15.13.366.098.737-.035.407-.055.454-.278.63-.33.262-.446.488-.43.837.022.46.302.76 1.126 1.213.355.196.42.256.54.511.073.154.073.156.08.542.006.352-.042 1.323-.082 1.578l-.014.1-.122-.122a2.3 2.3 0 0 1-.391-.538c-.087-.171-.187-.464-.187-.542s-.029-.067-.146.062c-.376.418-.556 1.022-.496 1.662.056.593.238 1.013.591 1.36.17.165.458.356.667.438.118.049.142.069.182.15.069.14.224.374.369.545.322.387.864.696 1.36.776a.6.6 0 0 1 .309.124c.704.493 1.93.618 2.875.291a2.4 2.4 0 0 0 .593-.306.5.5 0 0 1 .233-.098c.456-.058.934-.302 1.287-.656.191-.193.302-.34.447-.588l.1-.174.202-.095c.45-.216.726-.467.935-.86.251-.471.336-1.173.202-1.707-.07-.282-.255-.646-.424-.829a1 1 0 0 0-.144-.142 1 1 0 0 0-.051.176c-.083.324-.26.64-.514.913-.1.109-.144.144-.158.122-.033-.062-.106-1.18-.108-1.65 0-.38.08-.62.273-.807.051-.05.233-.167.404-.262.59-.325.847-.538.99-.818.066-.133.077-.178.084-.358.015-.369-.074-.55-.407-.833-.273-.231-.287-.267-.287-.833l-.002-.423.096-.135c.202-.293.304-.596.288-.862a.7.7 0 0 0-.204-.498c-.149-.16-.415-.271-.702-.298-.073-.006-.078-.01-.107-.129-.035-.157-.024-.497.022-.588.132-.252.554-.483 1.036-.567.087-.016.16-.038.16-.049a2 2 0 0 0-.205-.224c-.182-.183-.235-.223-.44-.323a1.8 1.8 0 0 0-.944-.213 1.7 1.7 0 0 0-.533.062 2.4 2.4 0 0 0-.813.403c-.183.137-.531.48-.69.677l-.08.1-.12-.03a.5.5 0 0 1-.146-.054c-.044-.034-.035-.311.016-.525.024-.102.084-.27.133-.375s.089-.193.089-.2a.7.7 0 0 0-.144 0c-.18.015-.44.135-.665.304a.7.7 0 0 1-.16.107c-.029-.029-.102-.284-.122-.427a1.4 1.4 0 0 1 .047-.555c.013-.033.02-.065.015-.069a1 1 0 0 0-.18.069m-3.863.998c.383.102.756.382 1.082.81.076.1.1.147.078.154l-.15.073a1 1 0 0 1-.139.065c-.01 0-.04-.036-.066-.078a2 2 0 0 0-.394-.431 1.5 1.5 0 0 0-.52-.305c-.14-.05-.206-.06-.464-.064-.284-.007-.307-.011-.42-.073l-.118-.067.116-.038c.304-.1.72-.12.995-.046m7.66.002c.073.018.162.044.195.06l.062.024-.117.067c-.112.062-.132.067-.33.062a1.52 1.52 0 0 0-.926.267c-.16.11-.418.366-.498.493a2 2 0 0 1-.08.124c-.01.016-.317-.137-.317-.16 0-.035.21-.293.37-.453.318-.315.583-.453 1.007-.526.107-.02.5.006.634.042M8.644 2.7c.42.065 1.044.243 1.166.331.047.034.082.231.065.358a1.6 1.6 0 0 1-.154.345c-.078.14-.202.377-.275.528a4 4 0 0 1-.254.434c-.144.195-.224.324-.21.34a2 2 0 0 0 .286-.194c1-.737 1.6-1.028 2.358-1.142.266-.04.435-.042.597-.002.267.062.385.196.37.413a1.25 1.25 0 0 1-.21.527l-.084.129-.011-.19c-.011-.177-.014-.184-.04-.121a1.3 1.3 0 0 0-.063.209c-.042.184-.12.975-.12 1.235 0 .518.12.962.32 1.182l.078.089-.082.078c-.158.15-.509.342-.907.493-.397.151-.544.42-.622 1.155-.006.08-.02.123-.033.11a2 2 0 0 1-.1-.232l-.078-.209.013.6c.02.938.072 1.318.272 2.018a.8.8 0 0 1 .044.209 3 3 0 0 1-.444.073c-.007-.007-.243-.36-.525-.784-.329-.496-.566-.88-.66-1.065-.08-.157-.149-.284-.155-.277-.025.022.129.795.238 1.215a15 15 0 0 0 .42 1.34c0 .002-.91.004-2.02.004h-2.02l.087-.244a15 15 0 0 0 .375-1.262c.098-.405.207-.973.196-1.031-.005-.022-.065.08-.136.227-.087.175-.313.544-.667 1.075l-.535.807-.118-.014a3 3 0 0 1-.23-.038c-.103-.022-.112-.028-.099-.073.05-.155.196-.742.225-.902.058-.329.095-.862.097-1.378v-.5l-.077.223-.078.226q-.002.007-.02.007c-.009 0-.027-.082-.033-.185-.025-.288-.076-.502-.16-.675-.111-.229-.231-.329-.558-.462-.416-.169-.873-.445-.873-.525 0-.013.03-.053.066-.093.094-.098.191-.302.247-.515.109-.418.06-1.59-.089-2.045l-.042-.133-.005.133a1 1 0 0 1-.017.185c-.014.046-.023.04-.09-.065-.23-.35-.273-.646-.115-.808.116-.118.254-.156.567-.154.766.005 1.542.338 2.6 1.118.184.135.342.247.35.247.025 0-.055-.13-.204-.334a4 4 0 0 1-.27-.466c-.08-.165-.205-.4-.276-.523-.138-.237-.167-.362-.136-.577.02-.12.031-.127.369-.24a5.5 5.5 0 0 1 1.03-.227 8 8 0 0 1 1.459.022M4.526 9.505c-.004.06-.006.011-.006-.104 0-.116.002-.165.006-.107.005.06.005.153 0 .211m6.622.5c-.005.029-.01.011-.01-.038-.001-.049.003-.07.01-.05a.3.3 0 0 1 0 .088m-6.666.556q-.01.021-.011-.027 0-.047.01-.029a.1.1 0 0 1 0 .056m-1.045.584c.34.418.914.684 1.647.764.102.011.191.025.198.031.013.014-.111.196-.223.327a.87.87 0 0 0-.173.713c.016.074.034.15.04.167.016.042-.109.042-.35-.002-.583-.102-1.059-.4-1.316-.83-.098-.16-.16-.343-.207-.608-.058-.329-.02-.92.069-1.062.011-.018.053.049.113.169.051.109.142.258.202.33m9.155-.293c.049.233.042.702-.013.97a1.42 1.42 0 0 1-.422.78q-.503.503-1.278.57l-.165.013.034-.12c.02-.076.029-.19.024-.31-.01-.23-.062-.346-.275-.62-.17-.215-.171-.208.1-.232a2.9 2.9 0 0 0 1.004-.28q.59-.294.844-.86c.078-.176.092-.17.147.089m-1.4-.07q-.01.022-.01-.026 0-.047.01-.029a.1.1 0 0 1 0 .056m.045.512q-.01.021-.011-.027 0-.047.01-.029a.1.1 0 0 1 0 .056m-5.742.189a.4.4 0 0 1-.1 0c-.029-.005-.007-.01.049-.01.055 0 .078.005.051.01m4.755 0a.4.4 0 0 1-.1 0c-.029-.005-.007-.01.049-.01s.078.005.051.01m-.26.857c.165.056.258.125.316.238q.11.213-.047.647c-.124.337-.173.42-.342.56-.458.382-1.016.58-1.791.637-.705.05-1.407-.073-1.938-.337a1.9 1.9 0 0 1-.515-.358c-.125-.118-.15-.158-.23-.36-.212-.549-.197-.809.056-.958.203-.118.214-.118 2.378-.113 1.829.004 2.009.009 2.113.044m-5.06 1.305a2 2 0 0 1 .192.026c.002.005.046.091.095.196.05.104.12.242.158.304a.4.4 0 0 1 .058.118c-.027 0-.205-.1-.322-.178-.127-.086-.49-.45-.49-.49 0-.014.027-.019.063-.012.033.007.144.022.247.036m6.067.026a2.5 2.5 0 0 1-.574.516.7.7 0 0 1-.193.095.6.6 0 0 1 .078-.168c.051-.087.122-.223.158-.3.062-.14.066-.145.16-.158.053-.007.15-.02.217-.031.214-.034.211-.036.154.046m-3.08 1.345a1.3 1.3 0 0 1-.189 0c-.053-.005-.011-.01.093-.01.105 0 .147.005.096.01"/>
  <path d="M6.955 5.377c0 .009.02.035.044.057.025.023.045.054.045.07 0 .05.353.357.5.43.217.111.33.114.529.016.186-.093.486-.34.54-.445a1 1 0 0 1 .073-.113c.033-.04.033-.042-.01-.024-.304.126-.332.13-.821.133-.48 0-.6-.016-.805-.102-.053-.022-.095-.033-.095-.022m-2.567.04a2 2 0 0 0-.522.168c-.04.014-.046.01.185.083l.15.049-.055.055c-.142.142-.164.456-.05.702.066.147.104.162.106.043 0-.103.08-.356.084-.27.005.143.094.567.154.74q.248.724.915.894c.149.038.482.05.573.022.045-.016.05-.009.05.056 0 .113-.067.35-.136.49l-.065.127.062-.026c.134-.06.22-.114.32-.196a.6.6 0 0 1 .123-.087c.037 0 .257-.36.317-.52.036-.086.07-.21.078-.275.013-.102.022-.118.073-.129.292-.062.536-.291.538-.507 0-.055-.007-.06-.049-.046a2 2 0 0 1-.155.026c-.218.025-.482-.17-.734-.544a3 3 0 0 0-.248-.333c-.225-.245-.585-.436-.965-.513a4 4 0 0 0-.749-.01m.62.688c.451.27.865.618 1.1.923.03.037.003.04-.497.04h-.53l-.084-.087c-.13-.14-.182-.3-.184-.591-.002-.229.015-.367.044-.367.01 0 .076.038.151.082m5.391-.65a1.8 1.8 0 0 0-.647.305c-.173.126-.266.235-.457.522-.154.227-.338.407-.503.491a.5.5 0 0 1-.39.016c-.052-.016-.054-.014-.038.07.048.256.226.414.553.485.053.013.06.025.06.098 0 .169.1.42.26.664.087.13.324.322.51.416l.116.058-.055-.12a2.2 2.2 0 0 1-.142-.518c0-.051.006-.054.073-.038.109.024.396.018.529-.013.358-.083.664-.325.835-.656.087-.169.171-.413.194-.555.004-.038.02-.131.033-.211s.027-.176.031-.211c.007-.06.011-.054.042.055.02.067.043.16.051.205.007.046.023.084.032.084.03 0 .115-.222.14-.367.028-.17-.02-.362-.116-.457l-.062-.065.158-.047a1 1 0 0 0 .177-.064c.022-.02-.25-.122-.44-.169-.215-.049-.713-.038-.944.022m.429.66c.03.114.004.525-.04.651a.7.7 0 0 1-.134.205l-.093.098h-.513c-.365 0-.516-.007-.516-.025 0-.042.465-.489.651-.629.227-.169.576-.39.605-.382.01.002.029.04.04.082m-4.94 6.624c-.113.031-.177.1-.177.189s.128.431.222.598a.9.9 0 0 0 .35.335c.045.02.143.036.219.036.304.002.515-.238.642-.731.03-.116.055-.234.055-.26 0-.071-.073-.142-.17-.17-.107-.03-1.036-.028-1.14.003m2.723-.004c-.082.026-.14.08-.155.144-.018.071.082.449.164.624.14.292.378.44.625.39.293-.065.457-.258.642-.756.06-.162.064-.196.042-.262-.044-.14-.095-.151-.709-.156-.3-.002-.573.005-.609.016"/>
</svg>
